<svg width="614" height="256" xmlns="http://www.w3.org/2000/svg">
 <defs>
  <clipPath id="clip0_1_2">
   <rect width="614" height="256" fill="white" id="svg_1"/>
  </clipPath>
 </defs>
 <g>
  <title>background</title>
  <rect x="-1" y="-1" width="616" height="258" id="canvas_background" fill="none"/>
 </g>
 <g>
  <title>Layer 1</title>
  <g clip-path="url(#clip0_1_2)" id="svg_2">
   <path d="m300.094,0l-156.188,0c-79.477,0 -143.906,26.8629 -143.906,60l0,136c0,33.137 64.429,60 143.906,60l326.188,0c79.477,0 143.906,-26.863 143.906,-60l0,-136c0,-33.1371 -64.429,-60 -143.906,-60l-170,0z" fill="#5865F2" id="svg_3"/>
   <mask id="mask0_1_2" maskUnits="userSpaceOnUse" x="58" y="51" width="200" height="155">
    <path d="m258,51l-200,0l0,154.93l200,0l0,-154.93z" fill="white" id="svg_4"/>
   </mask>
   <g mask="url(#mask0_1_2)" id="svg_5">
    <path d="m227.308,64.7966c-12.747,-5.849 -26.416,-10.1583 -40.709,-12.6265c-0.26,-0.0476 -0.52,0.0714 -0.654,0.3095c-1.758,3.1268 -3.706,7.206 -5.069,10.4122c-15.373,-2.3014 -30.666,-2.3014 -45.723,0c-1.364,-3.2775 -3.382,-7.2854 -5.148,-10.4122c-0.134,-0.2301 -0.394,-0.3491 -0.655,-0.3095c-14.284,2.4603 -27.954,6.7696 -40.7089,12.6265c-0.1104,0.0476 -0.205,0.127 -0.2679,0.2301c-25.9283,38.7363 -33.0311,76.5203 -29.5467,113.8363c0.0158,0.183 0.1182,0.357 0.2602,0.468c17.1067,12.563 33.6775,20.19 49.9403,25.245c0.261,0.079 0.536,-0.016 0.702,-0.23c3.847,-5.254 7.276,-10.793 10.217,-16.618c0.173,-0.342 0.007,-0.746 -0.347,-0.881c-5.44,-2.064 -10.619,-4.579 -15.601,-7.436c-0.394,-0.23 -0.426,-0.794 -0.063,-1.064c1.048,-0.786 2.097,-1.603 3.098,-2.428c0.181,-0.151 0.433,-0.183 0.646,-0.088c32.732,14.944 68.167,14.944 100.512,0c0.213,-0.103 0.466,-0.071 0.655,0.08c1.001,0.825 2.049,1.65 3.106,2.436c0.362,0.27 0.339,0.834 -0.055,1.064c-4.983,2.912 -10.162,5.372 -15.609,7.428c-0.355,0.135 -0.513,0.547 -0.339,0.889c3.003,5.817 6.432,11.356 10.208,16.61c0.158,0.222 0.442,0.317 0.702,0.238c16.342,-5.055 32.913,-12.682 50.02,-25.245c0.149,-0.111 0.244,-0.278 0.26,-0.46c4.17,-43.141 -6.985,-80.6156 -29.571,-113.8364c-0.055,-0.111 -0.149,-0.1904 -0.26,-0.238zm-102.474,91.3454c-9.855,0 -17.975,-9.047 -17.975,-20.158c0,-11.111 7.963,-20.158 17.975,-20.158c10.09,0 18.131,9.127 17.973,20.158c0,11.111 -7.962,20.158 -17.973,20.158zm66.456,0c-9.855,0 -17.974,-9.047 -17.974,-20.158c0,-11.111 7.962,-20.158 17.974,-20.158c10.09,0 18.131,9.127 17.974,20.158c0,11.111 -7.884,20.158 -17.974,20.158z" fill="white" id="svg_6"/>
   </g>
  </g>
  <text stroke="#000" transform="matrix(0.8944955256207692,0,0,1,27.693257290271667,0) " font-weight="bold" xml:space="preserve" text-anchor="start" font-family="Helvetica, Arial, sans-serif" font-size="100" id="svg_7" y="162.705662" x="263.546875" stroke-width="0" fill="#ffffff">.sheixs</text>
 </g>
</svg>